<svg id="Capa_1" enable-background="new 0 0 128 128" viewBox="0 0 128 128" xmlns="http://www.w3.org/2000/svg"><path d="m128 34.2h-98.4v-23.9c0-3.2 2.6-5.8 5.8-5.8h86.7c3.2 0 5.8 2.6 5.8 5.8v23.9z" fill="#41a5ed"/><path d="m29.6 34.2h98.4v29.8h-98.4z" fill="#2c7bd5"/><path d="m29.6 64h98.4v29.8h-98.4z" fill="#195abe"/><path d="m122.2 123.5h-86.7c-3.2 0-5.8-2.6-5.8-5.8v-23.9h98.3v23.9c0 3.2-2.6 5.8-5.8 5.8z" fill="#103e91"/><path d="m59.5 96.5h-53c-3.5 0-6.4-2.9-6.4-6.4v-52.2c0-3.5 2.9-6.4 6.4-6.4h53c3.5 0 6.4 2.9 6.4 6.4v52.2c0 3.5-2.8 6.4-6.4 6.4z" fill="#2166c3"/><g><path d="m19.3 82.4-8.9-35.9h7.1l3.5 16.3c.9 4.4 1.8 8.9 2.4 12.5h.1c.6-3.8 1.6-8 2.6-12.6l3.9-16.2h7l3.6 16.5c.9 4.3 1.7 8.2 2.2 12.1h.1c.6-4 1.5-8 2.5-12.4l3.8-16.2h6.8l-9.8 35.9h-7.2l-3.8-16.9c-.9-4-1.6-7.4-2.1-11.3h-.1c-.6 3.8-1.3 7.3-2.4 11.4l-4.2 16.9h-7.1z" fill="#fff"/></g><path d="m65.9 37.3v.6 52.2c0 3.5-2.9 6.4-6.4 6.4h-29.8v5.7h35.2c3.5 0 6.4-2.9 6.4-6.4v-52.2c0-3.2-2.3-5.9-5.4-6.3z" opacity=".2"/></svg>