<svg id="Capa_1" enable-background="new 0 0 128 128" viewBox="0 0 128 128" xmlns="http://www.w3.org/2000/svg"><circle cx="63.7" cy="36.5" fill="#036c70" r="36.7"/><circle cx="94.3" cy="70" fill="#1a9ba1" r="33.9"/><circle cx="68.5" cy="102.1" fill="#37c6d0" r="26"/><path d="m59.5 97.2h-53c-3.5 0-6.4-2.9-6.4-6.4v-52.2c0-3.5 2.9-6.4 6.4-6.4h53c3.5 0 6.4 2.9 6.4 6.4v52.2c0 3.5-2.8 6.4-6.4 6.4z" fill="#04878b"/><g><path d="m22.3 75.9c2.1 1.2 5.4 2.3 8.8 2.3 4.2 0 6.6-2 6.6-4.9 0-2.7-1.8-4.3-6.4-6-6-2.1-9.9-5.3-9.9-10.4 0-5.9 5-10.3 12.9-10.3 3.9 0 6.8.9 8.7 1.8l-1.6 5.3c-1.3-.7-3.8-1.7-7.2-1.7-4.2 0-6 2.2-6 4.3 0 2.8 2.1 4 7 5.9 6.3 2.4 9.3 5.5 9.3 10.6 0 5.8-4.4 10.7-13.8 10.7-3.9 0-7.9-1.1-9.9-2.2z" fill="#fff"/></g><path d="m65.9 38v.6 52.2c0 3.5-2.9 6.4-6.4 6.4h-16.7l-.2 5.7h22.4c3.5 0 6.4-2.9 6.4-6.4v-52.2c-.1-3.2-2.4-5.8-5.5-6.3z" opacity=".2"/></svg>